{
  "accessors": [
    {
      "bufferView": 2,
      "componentType": 5126,
      "count": 494,
      "max": [
        2.8301460742950439,
        2.1247351169586182,
        4.6276302337646484
      ],
      "min": [
        0.91564798355102539,
        1.8959469795227051,
        0.042204998433589935
      ],
      "type": "VEC3"
    },
    {
      "bufferView": 2,
      "byteOffset": 5928,
      "componentType": 5126,
      "count": 494,
      "max": [
        0.17410479485988617,
        1,
        -0
      ],
      "min": [
        -1,
        -0.23539969325065613,
        -1
      ],
      "type": "VEC3"
    },
    {
      "bufferView": 3,
      "componentType": 5126,
      "count": 494,
      "max": [
        0,
        0,
        0,
        1
      ],
      "min": [
        0,
        0,
        0,
        1
      ],
      "type": "VEC4"
    },
    {
      "bufferView": 0,
      "componentType": 5125,
      "count": 1542,
      "max": [
        493
      ],
      "min": [
        0
      ],
      "type": "SCALAR"
    },
    {
      "bufferView": 2,
      "byteOffset": 11856,
      "componentType": 5126,
      "count": 21,
      "max": [
        2.3827219009399414,
        2.1247351169586182,
        4.4809679985046387
      ],
      "min": [
        2.2358031272888184,
        2.1247351169586182,
        4.334047794342041
      ],
      "type": "VEC3"
    },
    {
      "bufferView": 2,
      "byteOffset": 12108,
      "componentType": 5126,
      "count": 21,
      "max": [
        0,
        1,
        0
      ],
      "min": [
        0,
        1,
        0
      ],
      "type": "VEC3"
    },
    {
      "bufferView": 3,
      "byteOffset": 7904,
      "componentType": 5126,
      "count": 21,
      "max": [
        -0.98768514394760132,
        0,
        0.1564553827047348,
        1
      ],
      "min": [
        -0.98769199848175049,
        0,
        0.15641126036643982,
        1
      ],
      "type": "VEC4"
    },
    {
      "bufferView": 1,
      "componentType": 5126,
      "count": 21,
      "max": [
        0.97127598524093628,
        0.72910600900650024
      ],
      "min": [
        0.02872299961745739,
        0.27089399099349976
      ],
      "type": "VEC2"
    },
    {
      "bufferView": 0,
      "byteOffset": 6168,
      "componentType": 5125,
      "count": 60,
      "max": [
        20
      ],
      "min": [
        0
      ],
      "type": "SCALAR"
    },
    {
      "bufferView": 2,
      "byteOffset": 12360,
      "componentType": 5126,
      "count": 121,
      "max": [
        2.9143550395965576,
        2.1553549766540527,
        4.5448517799377441
      ],
      "min": [
        2.615433931350708,
        2.1553540229797363,
        4.2459311485290527
      ],
      "type": "VEC3"
    },
    {
      "bufferView": 2,
      "byteOffset": 13812,
      "componentType": 5126,
      "count": 121,
      "max": [
        0,
        1,
        0
      ],
      "min": [
        0,
        1,
        0
      ],
      "type": "VEC3"
    },
    {
      "bufferView": 3,
      "byteOffset": 8240,
      "componentType": 5126,
      "count": 121,
      "max": [
        0.97896325588226318,
        0,
        -0.20403674244880676,
        1
      ],
      "min": [
        0.96166372299194336,
        0,
        -0.27423149347305298,
        1
      ],
      "type": "VEC4"
    },
    {
      "bufferView": 1,
      "byteOffset": 168,
      "componentType": 5126,
      "count": 121,
      "max": [
        0.74754798412322998,
        0.81768500804901123
      ],
      "min": [
        0.25245198607444763,
        0.19385300576686859
      ],
      "type": "VEC2"
    },
    {
      "bufferView": 0,
      "byteOffset": 6408,
      "componentType": 5125,
      "count": 600,
      "max": [
        120
      ],
      "min": [
        0
      ],
      "type": "SCALAR"
    },
    {
      "bufferView": 2,
      "byteOffset": 15264,
      "componentType": 5126,
      "count": 4,
      "max": [
        4.0210180282592773,
        4.0210180282592773,
        0
      ],
      "min": [
        0,
        0,
        0
      ],
      "type": "VEC3"
    },
    {
      "bufferView": 2,
      "byteOffset": 15312,
      "componentType": 5126,
      "count": 4,
      "max": [
        0,
        -0,
        1
      ],
      "min": [
        0,
        -0,
        1
      ],
      "type": "VEC3"
    },
    {
      "bufferView": 3,
      "byteOffset": 10176,
      "componentType": 5126,
      "count": 4,
      "max": [
        1,
        0,
        0,
        1
      ],
      "min": [
        1,
        0,
        0,
        1
      ],
      "type": "VEC4"
    },
    {
      "bufferView": 1,
      "byteOffset": 1136,
      "componentType": 5126,
      "count": 4,
      "max": [
        0.99989998340606689,
        0.99989998340606689
      ],
      "min": [
        9.9999997473787516e-05,
        9.9999997473787516e-05
      ],
      "type": "VEC2"
    },
    {
      "bufferView": 0,
      "byteOffset": 8808,
      "componentType": 5125,
      "count": 6,
      "max": [
        3
      ],
      "min": [
        0
      ],
      "type": "SCALAR"
    },
    {
      "bufferView": 2,
      "byteOffset": 15360,
      "componentType": 5126,
      "count": 6102,
      "max": [
        3.145266056060791,
        2.1553549766540527,
        4.7516307830810547
      ],
      "min": [
        0.86316597461700439,
        1.9051870107650757,
        0.042706999927759171
      ],
      "type": "VEC3"
    },
    {
      "bufferView": 2,
      "byteOffset": 88584,
      "componentType": 5126,
      "count": 6102,
      "max": [
        1,
        1,
        1
      ],
      "min": [
        -1,
        -0.99930417537689209,
        -1
      ],
      "type": "VEC3"
    },
    {
      "bufferView": 3,
      "byteOffset": 10240,
      "componentType": 5126,
      "count": 6102,
      "max": [
        0,
        0,
        0,
        1
      ],
      "min": [
        0,
        0,
        0,
        1
      ],
      "type": "VEC4"
    },
    {
      "bufferView": 0,
      "byteOffset": 8832,
      "componentType": 5125,
      "count": 34440,
      "max": [
        6101
      ],
      "min": [
        0
      ],
      "type": "SCALAR"
    },
    {
      "bufferView": 2,
      "byteOffset": 161808,
      "componentType": 5126,
      "count": 1935,
      "max": [
        3.0176119804382324,
        1.8964740037918091,
        4.1855721473693848
      ],
      "min": [
        1.0034060478210449,
        1.8964740037918091,
        0.60876601934432983
      ],
      "type": "VEC3"
    },
    {
      "bufferView": 2,
      "byteOffset": 185028,
      "componentType": 5126,
      "count": 1935,
      "max": [
        0.097998678684234619,
        -0.99518203735351562,
        0.0046000299043953419
      ],
      "min": [
        -0.097998678684234619,
        -1,
        -0.003400162560865283
      ],
      "type": "VEC3"
    },
    {
      "bufferView": 3,
      "byteOffset": 107872,
      "componentType": 5126,
      "count": 1935,
      "max": [
        0.99999845027923584,
        0.097998537123203278,
        0.82910752296447754,
        1
      ],
      "min": [
        0.55708783864974976,
        -0.097998537123203278,
        -0.82845550775527954,
        1
      ],
      "type": "VEC4"
    },
    {
      "bufferView": 1,
      "byteOffset": 1168,
      "componentType": 5126,
      "count": 1935,
      "max": [
        1,
        1
      ],
      "min": [
        0,
        0
      ],
      "type": "VEC2"
    },
    {
      "bufferView": 0,
      "byteOffset": 146592,
      "componentType": 5125,
      "count": 11088,
      "max": [
        1934
      ],
      "min": [
        0
      ],
      "type": "SCALAR"
    },
    {
      "bufferView": 2,
      "byteOffset": 208248,
      "componentType": 5126,
      "count": 1562,
      "max": [
        3.0609779357910156,
        1.9104239940643311,
        4.6839041709899902
      ],
      "min": [
        0.96003997325897217,
        1.8964740037918091,
        0.11043400317430496
      ],
      "type": "VEC3"
    },
    {
      "bufferView": 2,
      "byteOffset": 226992,
      "componentType": 5126,
      "count": 1562,
      "max": [
        0.38610643148422241,
        -0.92008590698242188,
        0.38572156429290771
      ],
      "min": [
        -0.38610643148422241,
        -1,
        -0.38572156429290771
      ],
      "type": "VEC3"
    },
    {
      "bufferView": 3,
      "byteOffset": 138832,
      "componentType": 5126,
      "count": 1562,
      "max": [
        0,
        0,
        0,
        1
      ],
      "min": [
        0,
        0,
        0,
        1
      ],
      "type": "VEC4"
    },
    {
      "bufferView": 0,
      "byteOffset": 190944,
      "componentType": 5125,
      "count": 7992,
      "max": [
        1561
      ],
      "min": [
        0
      ],
      "type": "SCALAR"
    },
    {
      "bufferView": 2,
      "byteOffset": 245736,
      "componentType": 5126,
      "count": 1410,
      "max": [
        3.1338109970092773,
        2.1252551078796387,
        4.7206487655639648
      ],
      "min": [
        0.87878596782684326,
        1.9051870107650757,
        0.073688998818397522
      ],
      "type": "VEC3"
    },
    {
      "bufferView": 2,
      "byteOffset": 262656,
      "componentType": 5126,
      "count": 1410,
      "max": [
        1,
        1,
        1
      ],
      "min": [
        -1,
        -1,
        -1
      ],
      "type": "VEC3"
    },
    {
      "bufferView": 3,
      "byteOffset": 163824,
      "componentType": 5126,
      "count": 1410,
      "max": [
        0,
        0,
        0,
        1
      ],
      "min": [
        0,
        0,
        0,
        1
      ],
      "type": "VEC4"
    },
    {
      "bufferView": 0,
      "byteOffset": 222912,
      "componentType": 5125,
      "count": 6084,
      "max": [
        1409
      ],
      "min": [
        0
      ],
      "type": "SCALAR"
    },
    {
      "bufferView": 2,
      "byteOffset": 279576,
      "componentType": 5126,
      "count": 285,
      "max": [
        2.2226359844207764,
        2.1246950626373291,
        3.7643229961395264
      ],
      "min": [
        1.7815029621124268,
        1.8964740037918091,
        0.043166998773813248
      ],
      "type": "VEC3"
    },
    {
      "bufferView": 2,
      "byteOffset": 282996,
      "componentType": 5126,
      "count": 285,
      "max": [
        0.79991602897644043,
        1,
        0.73908615112304688
      ],
      "min": [
        -0.79991602897644043,
        -0.87143129110336304,
        -0.73908615112304688
      ],
      "type": "VEC3"
    },
    {
      "bufferView": 3,
      "byteOffset": 186384,
      "componentType": 5126,
      "count": 285,
      "max": [
        0,
        0,
        0,
        1
      ],
      "min": [
        0,
        0,
        0,
        1
      ],
      "type": "VEC4"
    },
    {
      "bufferView": 0,
      "byteOffset": 247248,
      "componentType": 5125,
      "count": 1023,
      "max": [
        284
      ],
      "min": [
        0
      ],
      "type": "SCALAR"
    }
  ],
  "asset": {
    "extras": {
      "author": "Eternal Realm (https://sketchfab.com/EternalRealm)",
      "license": "CC-BY-4.0 (http://creativecommons.org/licenses/by/4.0/)",
      "source": "https://sketchfab.com/models/f8d186434eae45b7bd673ab980dfd953",
      "title": "IPhone 7 (Product Red)"
    },
    "generator": "Sketchfab-3.20.7",
    "version": "2.0"
  },
  "bufferViews": [
    {
      "buffer": 0,
      "byteLength": 251340,
      "byteOffset": 0,
      "name": "floatBufferViews",
      "target": 34963
    },
    {
      "buffer": 0,
      "byteLength": 16648,
      "byteOffset": 251340,
      "byteStride": 8,
      "name": "floatBufferViews",
      "target": 34962
    },
    {
      "buffer": 0,
      "byteLength": 286416,
      "byteOffset": 267988,
      "byteStride": 12,
      "name": "floatBufferViews",
      "target": 34962
    },
    {
      "buffer": 0,
      "byteLength": 190944,
      "byteOffset": 554404,
      "byteStride": 16,
      "name": "floatBufferViews",
      "target": 34962
    }
  ],
  "buffers": [
    {
      "byteLength": 745348,
      "uri": "scene.bin"
    }
  ],
  "images": [
    {
      "uri": "textures/screen_baseColor.png"
    },
    {
      "uri": "textures/screen_emissive.png"
    },
    {
      "uri": "textures/flash_baseColor.png"
    },
    {
      "uri": "textures/flash_emissive.png"
    },
    {
      "uri": "textures/lens_baseColor.jpg"
    },
    {
      "uri": "textures/plane_baseColor.png"
    },
    {
      "uri": "textures/plane_emissive.png"
    }
  ],
  "materials": [
    {
      "doubleSided": true,
      "emissiveFactor": [
        0,
        0,
        0
      ],
      "name": "black",
      "pbrMetallicRoughness": {
        "baseColorFactor": [
          0,
          0,
          0,
          1
        ],
        "metallicFactor": 0,
        "roughnessFactor": 0.59999999999999998
      }
    },
    {
      "doubleSided": true,
      "emissiveFactor": [
        1,
        1,
        1
      ],
      "emissiveTexture": {
        "index": 3,
        "texCoord": 0
      },
      "name": "flash",
      "pbrMetallicRoughness": {
        "baseColorFactor": [
          1,
          1,
          1,
          1
        ],
        "baseColorTexture": {
          "index": 2,
          "texCoord": 0
        },
        "metallicFactor": 0,
        "roughnessFactor": 0.16634908540000001
      }
    },
    {
      "doubleSided": true,
      "emissiveFactor": [
        0,
        0,
        0
      ],
      "name": "lens",
      "pbrMetallicRoughness": {
        "baseColorFactor": [
          1,
          1,
          1,
          1
        ],
        "baseColorTexture": {
          "index": 4,
          "texCoord": 0
        },
        "metallicFactor": 1,
        "roughnessFactor": 0
      }
    },
    {
      "doubleSided": true,
      "emissiveFactor": [
        1,
        1,
        1
      ],
      "emissiveTexture": {
        "index": 6,
        "texCoord": 0
      },
      "name": "plane",
      "pbrMetallicRoughness": {
        "baseColorFactor": [
          1,
          1,
          1,
          1
        ],
        "baseColorTexture": {
          "index": 5,
          "texCoord": 0
        },
        "metallicFactor": 0,
        "roughnessFactor": 0.59999999999999998
      }
    },
    {
      "doubleSided": true,
      "emissiveFactor": [
        0,
        0,
        0
      ],
      "name": "material",
      "pbrMetallicRoughness": {
        "baseColorFactor": [
          0.26225065749999998,
          0.0033465358000000001,
          0.013702083,
          1
        ],
        "metallicFactor": 0.64805640239999995,
        "roughnessFactor": 0.27877286590000006
      }
    },
    {
      "doubleSided": true,
      "emissiveFactor": [
        0,
        0,
        0
      ],
      "name": "red2",
      "pbrMetallicRoughness": {
        "baseColorFactor": [
          0.3806290698,
          0,
          0.0021888628,
          1
        ],
        "metallicFactor": 0.66634908540000004,
        "roughnessFactor": 0.29706554880000002
      }
    },
    {
      "doubleSided": true,
      "emissiveFactor": [
        1,
        1,
        1
      ],
      "emissiveTexture": {
        "index": 1,
        "texCoord": 0
      },
      "name": "screen",
      "pbrMetallicRoughness": {
        "baseColorFactor": [
          1,
          1,
          1,
          1
        ],
        "baseColorTexture": {
          "index": 0,
          "texCoord": 0
        },
        "metallicFactor": 0,
        "roughnessFactor": 0
      }
    },
    {
      "doubleSided": true,
      "emissiveFactor": [
        0,
        0,
        0
      ],
      "name": "silver",
      "pbrMetallicRoughness": {
        "baseColorFactor": [
          1,
          1,
          1,
          1
        ],
        "metallicFactor": 0.86147103660000002,
        "roughnessFactor": 0.13243140239999995
      }
    },
    {
      "doubleSided": true,
      "emissiveFactor": [
        0,
        0,
        0
      ],
      "name": "white",
      "pbrMetallicRoughness": {
        "baseColorFactor": [
          1,
          1,
          1,
          1
        ],
        "metallicFactor": 0,
        "roughnessFactor": 0.040967987799999994
      }
    }
  ],
  "meshes": [
    {
      "primitives": [
        {
          "attributes": {
            "NORMAL": 1,
            "POSITION": 0,
            "TANGENT": 2
          },
          "indices": 3,
          "material": 0,
          "mode": 4
        }
      ]
    },
    {
      "primitives": [
        {
          "attributes": {
            "NORMAL": 5,
            "POSITION": 4,
            "TANGENT": 6,
            "TEXCOORD_0": 7
          },
          "indices": 8,
          "material": 1,
          "mode": 4
        }
      ]
    },
    {
      "primitives": [
        {
          "attributes": {
            "NORMAL": 10,
            "POSITION": 9,
            "TANGENT": 11,
            "TEXCOORD_0": 12
          },
          "indices": 13,
          "material": 2,
          "mode": 4
        }
      ]
    },
    {
      "primitives": [
        {
          "attributes": {
            "NORMAL": 15,
            "POSITION": 14,
            "TANGENT": 16,
            "TEXCOORD_0": 17
          },
          "indices": 18,
          "material": 3,
          "mode": 4
        }
      ]
    },
    {
      "primitives": [
        {
          "attributes": {
            "NORMAL": 20,
            "POSITION": 19,
            "TANGENT": 21
          },
          "indices": 22,
          "material": 4,
          "mode": 4
        }
      ]
    },
    {
      "primitives": [
        {
          "attributes": {
            "NORMAL": 24,
            "POSITION": 23,
            "TANGENT": 25,
            "TEXCOORD_0": 26
          },
          "indices": 27,
          "material": 6,
          "mode": 4
        }
      ]
    },
    {
      "primitives": [
        {
          "attributes": {
            "NORMAL": 29,
            "POSITION": 28,
            "TANGENT": 30
          },
          "indices": 31,
          "material": 8,
          "mode": 4
        }
      ]
    },
    {
      "primitives": [
        {
          "attributes": {
            "NORMAL": 33,
            "POSITION": 32,
            "TANGENT": 34
          },
          "indices": 35,
          "material": 5,
          "mode": 4
        }
      ]
    },
    {
      "primitives": [
        {
          "attributes": {
            "NORMAL": 37,
            "POSITION": 36,
            "TANGENT": 38
          },
          "indices": 39,
          "material": 7,
          "mode": 4
        }
      ]
    }
  ],
  "nodes": [
    {
      "children": [
        1
      ],
      "name": "RootNode (gltf orientation matrix)",
      "rotation": [
        -0.70710678118654746,
        -0,
        -0,
        0.70710678118654757
      ]
    },
    {
      "children": [
        2
      ],
      "name": "RootNode (model correction matrix)"
    },
    {
      "children": [
        3
      ],
      "matrix": [
        1,
        0,
        0,
        0,
        0,
        1,
        0,
        0,
        0,
        0,
        1,
        0,
        -2.0105090141296387,
        -2.0105090141296387,
        0,
        1
      ],
      "name": "iphone7.obj.cleaner.materialmerger.gles"
    },
    {
      "children": [
        4,
        5,
        6,
        7,
        8,
        9,
        10,
        11,
        12
      ],
      "name": ""
    },
    {
      "mesh": 0,
      "name": ""
    },
    {
      "mesh": 1,
      "name": ""
    },
    {
      "mesh": 2,
      "name": ""
    },
    {
      "mesh": 3,
      "name": ""
    },
    {
      "mesh": 4,
      "name": ""
    },
    {
      "mesh": 5,
      "name": ""
    },
    {
      "mesh": 6,
      "name": ""
    },
    {
      "mesh": 7,
      "name": ""
    },
    {
      "mesh": 8,
      "name": ""
    }
  ],
  "samplers": [
    {
      "magFilter": 9729,
      "minFilter": 9987,
      "wrapS": 10497,
      "wrapT": 10497
    }
  ],
  "scene": 0,
  "scenes": [
    {
      "name": "OSG_Scene",
      "nodes": [
        0
      ]
    }
  ],
  "textures": [
    {
      "sampler": 0,
      "source": 0
    },
    {
      "sampler": 0,
      "source": 1
    },
    {
      "sampler": 0,
      "source": 2
    },
    {
      "sampler": 0,
      "source": 3
    },
    {
      "sampler": 0,
      "source": 4
    },
    {
      "sampler": 0,
      "source": 5
    },
    {
      "sampler": 0,
      "source": 6
    }
  ]
}

